PathFileType	4	(X/Y/Z)	s07c0303.trc
DataRate	CameraRate	NumFrames	NumMarkers	Units	OrigDataRate	OrigDataStartFrame	OrigNumFrames
200	200	6	48	mm	200	500	2000
Frame#	Time	racr			lacr			c7			jug			rlel			rdr			llel			ldr			s2			lic			ric			lasi			rasi			rpsi			lpsi			rgt			lgt			rth1			rth2			rth3			rth4			rlfc			rmfc			rsh1			rsh2			rsh3			rsh4			rlmal			rcal			rtoe			rmt5			lth1			lth2			lth4			lth3			llfc			lmfc			lsh1			lsh2			lsh3			lsh4			llmal			lcal			ltoe			lmt5			SBIKE			LBIKE			RBIKE			
		X1	Y1	Z1	X2	Y2	Z2	X3	Y3	Z3	X4	Y4	Z4	X5	Y5	Z5	X6	Y6	Z6	X7	Y7	Z7	X8	Y8	Z8	X9	Y9	Z9	X10	Y10	Z10	X11	Y11	Z11	X12	Y12	Z12	X13	Y13	Z13	X14	Y14	Z14	X15	Y15	Z15	X16	Y16	Z16	X17	Y17	Z17	X18	Y18	Z18	X19	Y19	Z19	X20	Y20	Z20	X21	Y21	Z21	X22	Y22	Z22	X23	Y23	Z23	X24	Y24	Z24	X25	Y25	Z25	X26	Y26	Z26	X27	Y27	Z27	X28	Y28	Z28	X29	Y29	Z29	X30	Y30	Z30	X31	Y31	Z31	X32	Y32	Z32	X33	Y33	Z33	X34	Y34	Z34	X35	Y35	Z35	X36	Y36	Z36	X37	Y37	Z37	X38	Y38	Z38	X39	Y39	Z39	X40	Y40	Z40	X41	Y41	Z41	X42	Y42	Z42	X43	Y43	Z43	X44	Y44	Z44	X45	Y45	Z45	X46	Y46	Z46	X47	Y47	Z47	X48	Y48	Z48	
500	2.5000	670.939503	1401.666595	2.223488	737.012111	1397.276450	-289.884202	694.841476	1450.179307	-148.318553	629.297228	1317.487079	-157.431996	491.463504	1085.969853	16.316536	718.587266	924.173204	-70.399463	572.938406	1142.504030	-485.129222	726.067618	905.242604	-418.628926	107.346850	1328.422049	-307.193006	301.059016	1319.841870	-410.567580	240.351843	1338.634518	-127.733664	300.300869	1239.301816	-378.493488	255.015776	1291.845592	-138.222015	132.476008	1366.944696	-256.036284	170.131207	1358.031137	-357.766249	164.274006	1250.062977	-87.247279	207.398086	1177.615427	-441.492950	278.493281	1139.160871	-56.965934	350.614237	1088.857462	-52.061567	388.511989	1013.074264	-41.453731	377.574556	1110.333454	-66.666571	466.444131	889.614417	-60.139472	468.480107	877.163200	-165.580369	387.153610	767.536385	-45.069543	354.908943	687.382516	-70.428115	288.967027	631.075431	-70.720514	370.468635	684.459805	-106.942639	203.832535	522.011391	-80.611860	129.935375	487.715006	-110.454495	418.103452	449.619602	-124.649717	339.586340	418.420103	-53.469799	230.324086	1059.405173	-431.144150	268.831036	982.826571	-411.746763	300.480003	991.326455	-396.098020	264.592321	894.706359	-401.050112	273.877638	719.571065	-365.638597	240.163142	711.605860	-276.091204	185.078458	602.121583	-397.345061	152.015435	524.062275	-380.804493	85.933285	464.840116	-394.627136	150.193719	526.942981	-338.588531	-2.007378	357.918556	-397.072228	-81.367766	352.850657	-363.242930	155.459843	184.827178	-356.689464	75.649083	207.456722	-415.705845	-261.164608	962.048566	-237.599908	-83.172428	79.226640	-435.894093	-83.019216	79.085721	-38.448052	
501	2.5050	669.651855	1396.155181	3.615058	736.998025	1394.248620	-288.127390	694.325721	1445.838612	-146.784384	629.467442	1313.034949	-157.009582	487.163748	1081.675539	13.805180	718.083307	924.572175	-71.044341	572.460536	1142.059464	-486.179202	725.579208	905.256365	-419.003368	106.616370	1326.612861	-307.475901	300.193652	1317.919892	-411.394392	239.995689	1335.591158	-128.218673	299.260206	1237.273960	-379.683380	254.658571	1289.168621	-139.035349	131.798101	1365.024925	-256.008605	169.406627	1356.221154	-358.166804	163.617357	1247.146427	-88.043569	206.484358	1175.897671	-442.666351	276.764844	1135.461651	-57.497975	347.993998	1084.174037	-53.108285	385.727626	1008.492547	-42.182588	375.728485	1106.236567	-66.551483	464.090789	885.577250	-61.091641	466.521501	873.005355	-165.946127	385.721939	762.790576	-45.863330	354.769310	682.001071	-70.982283	289.588269	624.923296	-71.688990	371.216488	679.190051	-107.348684	206.294766	514.478260	-81.637421	133.193154	479.001755	-111.471270	421.807829	444.850057	-124.604776	343.370004	412.754825	-53.670335	230.465712	1057.464666	-432.005554	270.393893	981.551947	-413.097821	302.242707	990.565267	-398.165665	267.807382	893.413846	-402.018238	279.426187	718.430589	-364.961771	245.860864	710.805435	-274.997432	188.196559	602.890748	-396.615219	152.990320	525.719289	-380.195151	85.255692	468.318116	-394.187672	151.139953	528.560215	-338.021016	-5.576770	364.010498	-397.252436	-85.097337	359.462751	-363.731253	150.834231	190.319398	-356.672232	71.281022	213.180275	-415.831417	-261.176749	962.082872	-237.574706	-83.222950	79.098001	-435.852318	-83.084685	79.143328	-38.510929	
502	2.5100	668.293386	1390.860427	4.980363	736.946523	1392.065455	-286.475816	693.717229	1441.678650	-145.280238	629.468273	1309.037425	-156.622549	483.416987	1077.274012	10.981023	717.916011	924.901360	-71.512132	572.276138	1141.744145	-487.281319	725.186954	905.312921	-419.315067	105.937190	1324.646021	-307.789487	299.437386	1315.899701	-412.104530	239.729216	1332.384558	-128.397660	298.295881	1235.124757	-380.861922	254.440680	1286.080820	-139.558197	131.424060	1362.891172	-256.141080	168.551892	1354.286701	-358.290932	162.995775	1243.997921	-88.780396	205.469883	1174.098225	-443.656696	275.177391	1131.336061	-58.535017	346.194153	1080.043742	-53.422162	383.239303	1003.641341	-43.327850	374.115976	1101.892394	-67.002570	462.107533	881.208009	-62.276977	464.533892	868.566879	-166.552185	384.483782	757.682093	-47.096532	354.839870	676.511337	-71.921165	290.335393	618.481837	-72.888039	371.107708	673.525539	-108.142693	209.241092	506.485831	-83.025742	136.219816	470.155541	-112.194181	425.298598	439.950031	-124.574011	347.024244	407.061144	-53.770919	230.493165	1055.483058	-433.048746	271.914945	980.168615	-414.579250	303.862346	989.751498	-400.261153	270.891865	892.011925	-403.125800	285.368161	717.211368	-364.199280	251.950583	709.905316	-273.930823	191.663268	603.710834	-395.926927	154.340960	527.591441	-379.642591	85.128281	472.134992	-393.901869	152.606637	530.465915	-337.464448	-8.454323	370.306932	-397.501226	-88.196123	366.204111	-364.229560	146.680911	195.924681	-356.423579	67.383038	218.988110	-415.849540	-261.149533	962.249065	-237.241313	-83.231750	79.160462	-435.856977	-83.079255	79.167846	-38.554481	
503	2.5150	667.055432	1385.453313	6.278321	736.902088	1389.813459	-285.181309	693.038646	1437.827653	-143.787980	629.508403	1305.230885	-156.253601	480.189015	1072.863123	7.950281	718.026082	924.846810	-71.968220	572.338998	1141.557749	-488.381703	724.876122	905.398564	-419.561337	105.183554	1322.490027	-307.850174	298.689097	1313.706568	-412.662945	239.451396	1329.176083	-128.729498	297.333941	1232.886056	-381.856938	254.070499	1283.097130	-140.169085	131.021479	1360.472805	-256.268038	167.908927	1352.355894	-358.528068	162.423064	1240.739799	-89.430264	204.420311	1172.025321	-444.550206	273.797546	1127.265133	-59.005611	344.549269	1075.401667	-54.422656	381.106084	998.716852	-44.848296	372.303407	1097.620122	-66.327833	459.495792	876.710070	-63.861831	462.572784	863.982798	-167.718538	383.480153	752.284624	-48.618866	354.910649	670.598110	-72.603412	291.270585	611.788700	-74.319034	371.388479	667.713460	-109.367973	211.495879	498.880616	-83.924639	139.096234	461.305228	-112.815915	428.600923	434.677959	-124.488168	350.442408	401.071571	-53.870895	230.506021	1053.736626	-434.134533	273.383168	978.830042	-416.132751	305.339446	988.952844	-402.272166	273.949258	890.708363	-404.483798	291.564098	716.148973	-363.662832	258.569241	709.127708	-272.856747	195.453665	604.658060	-395.386671	156.224336	529.555494	-379.048534	85.582969	475.808502	-393.482646	154.626848	532.407910	-336.909962	-10.696119	376.776940	-397.819058	-90.679666	373.422553	-364.702946	142.767821	201.354750	-356.255087	63.844268	224.951123	-415.728918	-261.098039	962.266089	-236.542891	-83.247802	79.225124	-435.809503	-83.049289	79.125471	-38.496682	
504	2.5200	665.755100	1380.331954	7.488409	736.919312	1387.965068	-283.746651	692.322373	1434.274040	-142.343185	629.523867	1301.653010	-155.906651	477.464683	1068.362890	4.784712	718.681499	925.013507	-71.812622	572.568546	1141.497614	-489.515106	724.628401	905.498487	-419.746018	104.520635	1320.235692	-307.943123	297.988182	1311.369996	-413.308658	239.194569	1325.868515	-128.947152	296.409209	1230.549555	-382.829416	253.884135	1279.970222	-140.547991	130.679379	1357.928406	-256.474842	167.223632	1350.214022	-358.703912	161.841668	1237.295751	-90.081387	203.366750	1169.964192	-445.314323	272.899052	1123.278534	-60.183438	343.233483	1070.737690	-55.725262	379.227078	993.706657	-46.679290	371.015897	1091.839888	-69.775058	457.431984	871.674134	-66.012799	459.831982	859.087045	-171.602878	382.635830	746.564958	-50.338285	355.093548	664.340940	-73.973301	292.238857	604.842382	-75.472334	371.503351	661.634237	-110.815133	213.665899	490.951747	-84.348918	142.444407	451.808710	-113.554730	431.697264	429.092158	-124.242441	353.867105	394.788214	-53.704094	230.609154	1051.870484	-435.203681	274.824922	977.540713	-417.619446	306.830932	988.169225	-404.077067	276.977393	889.563915	-405.947415	298.139904	715.149016	-363.114177	265.666501	708.389428	-271.836072	199.900656	605.651537	-394.581830	158.621597	531.478921	-378.346972	86.541619	479.749832	-393.094540	156.919651	534.348074	-336.367837	-12.343066	383.461138	-398.023711	-92.620427	381.150280	-364.699370	139.120286	206.836016	-356.216026	60.266187	231.059227	-415.829942	-261.049737	962.278562	-235.773805	-83.219750	79.315468	-435.732576	-83.004631	79.070496	-38.436041	
505	2.5250	664.522995	1375.383472	8.676443	736.846018	1386.520455	-282.327403	691.698645	1431.397355	-140.621314	627.481292	1297.157091	-158.709334	475.142499	1063.912828	1.532492	718.825795	924.448117	-71.981699	573.015019	1141.528193	-490.634535	724.426247	905.599172	-419.878283	103.908559	1317.647742	-308.072771	297.392623	1308.995585	-413.756096	238.929883	1322.400804	-129.076936	295.601878	1228.127911	-383.733767	253.653343	1276.873226	-140.963532	130.277749	1355.050507	-256.508763	166.546096	1347.776244	-358.793935	161.655392	1233.712684	-90.483202	202.736162	1167.806806	-446.579868	272.134893	1118.777774	-61.485128	342.127055	1065.827994	-57.534139	377.585068	988.542480	-48.849491	370.066450	1086.857989	-71.293125	455.054061	866.476638	-68.534869	457.190780	853.802341	-174.241371	381.825153	740.713728	-52.228138	355.245752	658.121055	-75.331442	293.202636	597.744139	-76.428680	371.563726	655.414370	-112.326129	215.787446	482.881768	-84.469696	144.851378	442.671733	-113.379848	434.549149	423.111439	-124.069877	356.857512	387.881935	-53.546156	230.772409	1049.877108	-436.177624	276.345598	976.214735	-418.960482	308.246716	987.399814	-405.648240	280.036209	888.389636	-407.421843	305.124760	713.976334	-362.812577	273.253381	707.793335	-270.972574	204.616623	606.661808	-393.905860	161.258610	533.737984	-377.719279	87.878146	483.751139	-392.526022	159.580546	536.721607	-335.576430	-13.583515	390.435370	-398.086751	-93.992442	389.093024	-364.641182	135.799263	212.358324	-356.279421	57.180978	237.402879	-415.878507	-260.873824	962.289322	-235.252451	-83.197538	79.378998	-435.705471	-82.963140	79.034902	-38.396911	
